<svg width="128" height="128" viewBox="0 0 128 128" fill="none" xmlns="http://www.w3.org/2000/svg">
<path fill-rule="evenodd" clip-rule="evenodd" d="M21.3867 21.3333C21.3867 15.4667 26.1333 10.6667 32 10.6667H74.6667L106.667 42.6667V106.667C106.667 112.533 101.867 117.333 96 117.333H31.9467C26.08 117.333 21.3333 112.533 21.3333 106.667L21.3867 21.3333ZM69.3333 18.6667V48H98.6667L69.3333 18.6667ZM53.8881 74.71C53.3481 75.09 53.0781 75.77 53.0781 76.75C53.0781 77.67 53.3481 78.34 53.8881 78.76C54.4481 79.18 55.1181 79.39 55.8981 79.39C56.6581 79.39 57.3081 79.18 57.8481 78.76C58.3881 78.34 58.6581 77.67 58.6581 76.75C58.6581 75.77 58.3881 75.09 57.8481 74.71C57.3081 74.31 56.6581 74.11 55.8981 74.11C55.1181 74.11 54.4481 74.31 53.8881 74.71ZM69.7914 61.48L70.3614 56.2H66.2514L66.8514 61.48L61.6014 59.98L61.0014 63.91L65.7714 64.3L62.6514 68.53L66.3414 70.39L68.2614 66.01L70.4514 70.42L73.9914 68.53L70.8414 64.3L75.6414 63.97L75.1314 59.98L69.7914 61.48Z" fill="black"/>
</svg>
