<svg width="128" height="128" viewBox="0 0 128 128" fill="none" xmlns="http://www.w3.org/2000/svg">
<path fill-rule="evenodd" clip-rule="evenodd" d="M21.3867 21.3333C21.3867 15.4667 26.1333 10.6667 32 10.6667H74.6667L106.667 42.6667V106.667C106.667 112.533 101.867 117.333 96 117.333H31.9467C26.08 117.333 21.3333 112.533 21.3333 106.667L21.3867 21.3333ZM69.3333 18.6667V48H98.6667L69.3333 18.6667ZM33.4389 74.71C32.8989 75.09 32.6289 75.77 32.6289 76.75C32.6289 77.67 32.8989 78.34 33.4389 78.76C33.9989 79.18 34.6689 79.39 35.4489 79.39C36.2089 79.39 36.8589 79.18 37.3989 78.76C37.9389 78.34 38.2089 77.67 38.2089 76.75C38.2089 75.77 37.9389 75.09 37.3989 74.71C36.8589 74.31 36.2089 74.11 35.4489 74.11C34.6689 74.11 33.9989 74.31 33.4389 74.71ZM50.8122 75.13C50.3722 75.23 49.8922 75.28 49.3722 75.28C48.8322 75.28 48.4022 75.14 48.0822 74.86C47.7622 74.56 47.6022 74.12 47.6022 73.54V66.31H51.9822V62.53H47.6022V59.11H44.3622L42.9822 62.59L40.4622 64.21V66.31H42.5622V73.72C42.5622 75.16 42.7822 76.29 43.2222 77.11C43.6822 77.91 44.3022 78.48 45.0822 78.82C45.8822 79.14 46.7922 79.3 47.8122 79.3C48.7722 79.3 49.6022 79.22 50.3022 79.06C51.0022 78.9 51.6222 78.7 52.1622 78.46V74.74C51.7022 74.9 51.2522 75.03 50.8122 75.13ZM66.3909 76.84C66.8909 76.04 67.1409 75.1 67.1409 74.02C67.1409 73.04 66.9709 72.24 66.6309 71.62C66.2909 71 65.7909 70.48 65.1309 70.06C64.4709 69.64 63.6709 69.24 62.7309 68.86C61.7909 68.46 61.0709 68.15 60.5709 67.93C60.0909 67.71 59.7609 67.51 59.5809 67.33C59.4209 67.13 59.3409 66.92 59.3409 66.7C59.3409 66.4 59.4909 66.18 59.7909 66.04C60.0909 65.88 60.5209 65.8 61.0809 65.8C61.5009 65.8 61.9509 65.85 62.4309 65.95C62.9109 66.05 63.4109 66.19 63.9309 66.37C64.4709 66.55 65.0109 66.76 65.5509 67L66.9909 63.58C65.9909 63.12 65.0209 62.78 64.0809 62.56C63.1409 62.34 62.1409 62.23 61.0809 62.23C59.0809 62.23 57.4709 62.63 56.2509 63.43C55.0509 64.21 54.4509 65.38 54.4509 66.94C54.4509 67.84 54.6009 68.6 54.9009 69.22C55.2209 69.84 55.6909 70.37 56.3109 70.81C56.9509 71.25 57.7609 71.68 58.7409 72.1C59.7409 72.5 60.4909 72.83 60.9909 73.09C61.5109 73.35 61.8509 73.58 62.0109 73.78C62.1909 73.98 62.2809 74.21 62.2809 74.47C62.2809 74.83 62.1109 75.11 61.7709 75.31C61.4309 75.51 60.8809 75.61 60.1209 75.61C59.4209 75.61 58.5409 75.49 57.4809 75.25C56.4409 75.01 55.4409 74.68 54.4809 74.26V78.34C55.3609 78.7 56.2309 78.95 57.0909 79.09C57.9709 79.23 58.9909 79.3 60.1509 79.3C61.7509 79.3 63.0709 79.09 64.1109 78.67C65.1509 78.23 65.9109 77.62 66.3909 76.84ZM75.5366 79V62.53H70.4966V79H75.5366ZM74.9366 56.47C74.3966 56.15 73.7666 55.99 73.0466 55.99C72.2866 55.99 71.6366 56.15 71.0966 56.47C70.5766 56.79 70.3166 57.41 70.3166 58.33C70.3166 59.23 70.5766 59.85 71.0966 60.19C71.6366 60.51 72.2866 60.67 73.0466 60.67C73.7666 60.67 74.3966 60.51 74.9366 60.19C75.4766 59.85 75.7466 59.23 75.7466 58.33C75.7466 57.41 75.4766 56.79 74.9366 56.47ZM87.9702 62.86C87.2102 62.44 86.2902 62.23 85.2102 62.23C83.9702 62.23 82.8802 62.56 81.9402 63.22C81.0202 63.88 80.3102 64.85 79.8102 66.13C79.3102 67.39 79.0602 68.94 79.0602 70.78C79.0602 73.5 79.6002 75.6 80.6802 77.08C81.7802 78.56 83.2602 79.3 85.1202 79.3C86.1802 79.3 87.0802 79.09 87.8202 78.67C88.5602 78.25 89.1702 77.65 89.6502 76.87H89.8002C89.7602 77.21 89.7202 77.56 89.6802 77.92C89.6602 78.28 89.6502 78.61 89.6502 78.91V79.24C89.6502 80.28 89.3602 81.06 88.7802 81.58C88.2202 82.12 87.3602 82.39 86.2002 82.39C85.4002 82.39 84.6402 82.34 83.9202 82.24C83.2202 82.16 82.5402 82.02 81.8802 81.82C81.2402 81.64 80.5802 81.41 79.9002 81.13V85.24C80.8402 85.6 81.8102 85.85 82.8102 85.99C83.8302 86.13 84.9602 86.2 86.2002 86.2C88.1002 86.2 89.6802 85.92 90.9402 85.36C92.2002 84.82 93.1402 84.02 93.7602 82.96C94.3802 81.9 94.6902 80.59 94.6902 79.03V62.53H90.3702L89.9802 64.6H89.8602C89.3602 63.86 88.7302 63.28 87.9702 62.86ZM85.4202 66.76C85.8402 66.4 86.3602 66.22 86.9802 66.22C87.7202 66.22 88.3102 66.39 88.7502 66.73C89.1902 67.05 89.5102 67.55 89.7102 68.23C89.9102 68.89 90.0102 69.73 90.0102 70.75V71.38C90.0102 72.08 89.9502 72.68 89.8302 73.18C89.7102 73.68 89.5302 74.1 89.2902 74.44C89.0702 74.76 88.7702 75 88.3902 75.16C88.0302 75.3 87.5802 75.37 87.0402 75.37C86.0602 75.37 85.3402 75.01 84.8802 74.29C84.4202 73.55 84.1902 72.41 84.1902 70.87C84.1902 69.83 84.2902 68.97 84.4902 68.29C84.6902 67.61 85.0002 67.1 85.4202 66.76Z" fill="black"/>
</svg>
