<svg width="24" height="24" viewBox="0 0 24 24" fill="none" xmlns="http://www.w3.org/2000/svg">
<path fill-rule="evenodd" clip-rule="evenodd" d="M3 5L12 1L21 5V11C21 16.55 17.16 21.74 12 23C6.84 21.74 3 16.55 3 11V5ZM13.3333 12.9432V18.6364L12.0267 20L9.33333 17.2727L10.6667 15.9091L9.33333 14.5455L10.6667 13.1818V12.9432C9.11333 12.3841 8 10.8705 8 9.09091C8 6.83409 9.79333 5 12 5C14.2067 5 16 6.83409 16 9.09091C16 10.8705 14.8867 12.3841 13.3333 12.9432ZM12 7.04545C10.9 7.04545 10 7.96591 10 9.09091C10 10.2159 10.9 11.1364 12 11.1364C13.1 11.1364 14 10.2159 14 9.09091C14 7.96591 13.1 7.04545 12 7.04545Z" fill="black"/>
</svg>
