<svg width="128" height="128" viewBox="0 0 128 128" fill="none" xmlns="http://www.w3.org/2000/svg">
<rect width="128" height="128" rx="32" fill="black"/>
<g filter="url(#filter0_d_3_33)">
<path fill-rule="evenodd" clip-rule="evenodd" d="M68 102C75.114 102 81.7715 100.045 87.4645 96.6432L88.4889 98.3612C82.4963 101.942 75.4885 104 68 104C45.9086 104 28 86.0914 28 64C28 41.9086 45.9086 24 68 24C75.4577 24 82.4388 26.0409 88.4151 29.5947C91.5195 31.2919 93.625 34.5876 93.625 38.375C93.625 43.8978 89.1478 48.375 83.625 48.375C78.1022 48.375 73.625 43.8978 73.625 38.375C73.625 33.5012 77.1117 29.4418 81.7268 28.5549C77.4692 26.905 72.8403 26 68 26C53.6406 26 42 43.0132 42 64C42 84.9868 53.6406 102 68 102Z" fill="url(#paint0_linear_3_33)"/>
</g>
<defs>
<filter id="filter0_d_3_33" x="18" y="14" width="85.625" height="100" filterUnits="userSpaceOnUse" color-interpolation-filters="sRGB">
<feFlood flood-opacity="0" result="BackgroundImageFix"/>
<feColorMatrix in="SourceAlpha" type="matrix" values="0 0 0 0 0 0 0 0 0 0 0 0 0 0 0 0 0 0 127 0" result="hardAlpha"/>
<feOffset/>
<feGaussianBlur stdDeviation="5"/>
<feComposite in2="hardAlpha" operator="out"/>
<feColorMatrix type="matrix" values="0 0 0 0 1 0 0 0 0 1 0 0 0 0 1 0 0 0 0.13 0"/>
<feBlend mode="normal" in2="BackgroundImageFix" result="effect1_dropShadow_3_33"/>
<feBlend mode="normal" in="SourceGraphic" in2="effect1_dropShadow_3_33" result="shape"/>
</filter>
<linearGradient id="paint0_linear_3_33" x1="109.25" y1="24" x2="28" y2="104" gradientUnits="userSpaceOnUse">
<stop offset="0.135417" stop-color="#8B0FFD"/>
<stop offset="0.541667" stop-color="#FF70A5"/>
<stop offset="0.895833" stop-color="#FEA972"/>
</linearGradient>
</defs>
</svg>
